<svg width="160" height="160" viewBox="0 0 160 160" fill="none" xmlns="http://www.w3.org/2000/svg">
<path d="M142.079 52.9017C141.152 51.9683 140.049 51.228 138.834 50.7237C137.619 50.2195 136.316 49.9613 135.001 49.9642H115.001V44.9642C115.001 35.6817 111.313 26.7793 104.75 20.2155C98.1859 13.6517 89.2836 9.96423 80.001 9.96423C70.7184 9.96423 61.816 13.6517 55.2522 20.2155C48.6885 26.7793 45.001 35.6817 45.001 44.9642V49.9642H25.001C22.3488 49.9642 19.8053 51.0178 17.9299 52.8932C16.0545 54.7685 15.001 57.3121 15.001 59.9642V127.464C15.001 139.652 25.3135 149.964 37.501 149.964H122.501C128.396 149.966 134.058 147.661 138.276 143.542C140.399 141.517 142.089 139.083 143.245 136.387C144.4 133.691 144.998 130.788 145.001 127.855V59.9642C145.005 58.6523 144.749 57.3526 144.247 56.1403C143.746 54.9281 143.009 53.8273 142.079 52.9017ZM55.001 44.9642C55.001 38.3338 57.6349 31.975 62.3233 27.2866C67.0117 22.5982 73.3706 19.9642 80.001 19.9642C86.6314 19.9642 92.9902 22.5982 97.6787 27.2866C102.367 31.975 105.001 38.3338 105.001 44.9642V49.9642H55.001V44.9642Z" fill="#008C8C"/>
</svg>
