<svg width="160" height="160" viewBox="0 0 160 160" fill="none" xmlns="http://www.w3.org/2000/svg">
<path d="M111.741 69.9732C115.026 69.9822 118.28 69.3395 121.315 68.0821C124.35 66.8248 127.106 64.9778 129.422 62.6482L153.484 38.6013C155.387 36.6982 155.562 33.6013 153.75 31.6045C153.295 31.1028 152.743 30.6987 152.127 30.4169C151.511 30.1351 150.844 29.9813 150.167 29.965C149.49 29.9486 148.817 30.07 148.188 30.3217C147.559 30.5735 146.988 30.9503 146.509 31.4295L125.062 52.8607C124.342 53.5799 123.366 53.9839 122.348 53.9839C121.331 53.9839 120.354 53.5799 119.634 52.8607C118.137 51.367 118.219 48.842 119.712 47.3482L141.066 25.9951C141.544 25.5164 141.921 24.9455 142.172 24.317C142.424 23.6886 142.545 23.0156 142.528 22.3388C142.512 21.6621 142.358 20.9958 142.077 20.3802C141.795 19.7646 141.392 19.2126 140.891 18.7576C139.986 17.9368 138.806 17.4852 137.584 17.492C136.2 17.4929 134.872 18.0437 133.894 19.0232L112.559 40.3545C111.839 41.0737 110.863 41.4777 109.845 41.4777C108.827 41.4777 107.851 41.0737 107.131 40.3545C105.637 38.8607 105.716 36.3357 107.209 34.842L128.562 13.4951C129.041 13.0164 129.418 12.4455 129.669 11.817C129.92 11.1886 130.042 10.5156 130.025 9.83884C130.009 9.16212 129.855 8.49577 129.574 7.88018C129.292 7.26458 128.889 6.71256 128.387 6.25758C127.483 5.43684 126.303 4.98523 125.081 4.99196C123.697 4.9936 122.37 5.54428 121.391 6.52321L97.3437 30.5701C95.0139 32.8869 93.1668 35.6428 91.9095 38.6784C90.6521 41.714 90.0094 44.9688 90.0187 48.2545V50.8263C90.0192 51.4839 89.89 52.1351 89.6385 52.7426C89.3871 53.3502 89.0182 53.9021 88.5531 54.367L77.425 65.4982C77.3089 65.6144 77.171 65.7066 77.0193 65.7695C76.8675 65.8324 76.7049 65.8648 76.5406 65.8648C76.3763 65.8648 76.2137 65.8324 76.0619 65.7695C75.9102 65.7066 75.7723 65.6144 75.6562 65.4982L21.5062 11.3451C20.5716 10.4094 19.3044 9.88214 17.982 9.87863C16.6595 9.87511 15.3895 10.3957 14.45 11.3263C9.71561 16.017 7.18749 22.6388 7.18749 30.4732C7.15624 43.4107 13.9562 58.2857 24.9344 69.2482L51.6375 95.9513C55.4328 99.7389 60.5755 101.866 65.9375 101.867C67.6469 101.868 69.3493 101.649 71.0031 101.217C71.4183 101.108 71.8457 101.053 72.275 101.051C73.5302 101.052 74.739 101.526 75.6593 102.379L79.2187 105.667C80.1367 106.605 80.6525 107.864 80.6562 109.176V110.908C80.6471 114.843 82.1938 118.623 84.9593 121.423L113.1 150.039L113.128 150.07C116.251 153.193 120.487 154.947 124.904 154.947C129.321 154.947 133.557 153.192 136.68 150.069C139.803 146.945 141.557 142.709 141.557 138.292C141.556 133.876 139.801 129.64 136.678 126.517L94.4968 84.3357C94.3806 84.2196 94.2884 84.0818 94.2255 83.93C94.1626 83.7783 94.1302 83.6156 94.1302 83.4513C94.1302 83.2871 94.1626 83.1244 94.2255 82.9726C94.2884 82.8209 94.3806 82.683 94.4968 82.5669L105.625 71.4388C106.089 70.9741 106.641 70.6054 107.248 70.354C107.855 70.1025 108.505 69.9731 109.162 69.9732H111.741Z" fill="#008C8C"/>
<path d="M65.9377 111.85C57.9325 111.834 50.2567 108.661 44.5752 103.022L40.244 98.6907C39.7753 98.2231 39.1403 97.9606 38.4783 97.9606C37.8163 97.9606 37.1814 98.2231 36.7127 98.6907L10.1502 125.116C5.41584 129.85 3.72522 136.819 6.06897 143.644C6.20014 144.028 6.35567 144.404 6.53459 144.769C9.68772 151.225 15.8065 154.975 22.5002 154.975C24.8022 154.981 27.0824 154.53 29.2088 153.648C31.3352 152.766 33.2654 151.471 34.8877 149.838L70.3127 114.244C70.4618 114.092 70.576 113.909 70.6472 113.708C70.7185 113.507 70.7451 113.293 70.7252 113.081V113C70.7113 112.805 70.6581 112.615 70.5688 112.441C70.4795 112.268 70.3559 112.114 70.2055 111.989C70.0551 111.864 69.881 111.772 69.6938 111.716C69.5065 111.66 69.3099 111.643 69.1158 111.666C68.0604 111.783 66.9996 111.844 65.9377 111.85Z" fill="#49516F"/>
</svg>
