<svg width="25" height="24" viewBox="0 0 25 24" fill="none" xmlns="http://www.w3.org/2000/svg">
<path d="M21.9072 19.7515L17.4968 15.341C18.5586 13.9274 19.1318 12.2068 19.1299 10.4388C19.1299 5.9229 15.4558 2.24884 10.9399 2.24884C6.42394 2.24884 2.74988 5.9229 2.74988 10.4388C2.74988 14.9548 6.42394 18.6288 10.9399 18.6288C12.7079 18.6308 14.4285 18.0576 15.8421 16.9957L20.2525 21.4062C20.4758 21.6058 20.767 21.7123 21.0663 21.7039C21.3657 21.6955 21.6504 21.5729 21.8622 21.3611C22.0739 21.1494 22.1966 20.8646 22.205 20.5653C22.2133 20.2659 22.1068 19.9748 21.9072 19.7515ZM5.08988 10.4388C5.08988 9.28182 5.43298 8.15078 6.07578 7.18876C6.71859 6.22673 7.63223 5.47692 8.70118 5.03415C9.77013 4.59137 10.9464 4.47552 12.0812 4.70125C13.2159 4.92697 14.2583 5.48413 15.0765 6.30227C15.8946 7.1204 16.4518 8.16277 16.6775 9.29756C16.9032 10.4324 16.7873 11.6086 16.3446 12.6775C15.9018 13.7465 15.152 14.6601 14.19 15.3029C13.2279 15.9457 12.0969 16.2888 10.9399 16.2888C9.38893 16.287 7.90204 15.67 6.80536 14.5734C5.70867 13.4767 5.09174 11.9898 5.08988 10.4388Z" fill="#B3B3B3"/>
</svg>
